<?xml version="1.0" encoding="UTF-8" standalone="no"?>
<svg
   width="199.99609"
   height="150.97266"
   viewBox="0 0 52.915633 39.944848"
   version="1.1"
   id="svg8"
   inkscape:version="1.1.1 (3bf5ae0d25, 2021-09-20)"
   sodipodi:docname="gotodotxt.svg"
   inkscape:export-filename="/home/karma/Obrazy/gotodotxt.svg"
   inkscape:export-xdpi="59"
   inkscape:export-ydpi="59"
   xmlns:inkscape="http://www.inkscape.org/namespaces/inkscape"
   xmlns:sodipodi="http://sodipodi.sourceforge.net/DTD/sodipodi-0.dtd"
   xmlns="http://www.w3.org/2000/svg"
   xmlns:svg="http://www.w3.org/2000/svg"
   xmlns:rdf="http://www.w3.org/1999/02/22-rdf-syntax-ns#"
   xmlns:cc="http://creativecommons.org/ns#"
   xmlns:dc="http://purl.org/dc/elements/1.1/">
  <defs
     id="defs2" />
  <sodipodi:namedview
     id="base"
     pagecolor="#ffffff"
     bordercolor="#666666"
     borderopacity="1.0"
     inkscape:pageopacity="0.0"
     inkscape:pageshadow="2"
     inkscape:zoom="2"
     inkscape:cx="133"
     inkscape:cy="19.75"
     inkscape:document-units="mm"
     inkscape:current-layer="layer1"
     inkscape:document-rotation="0"
     showgrid="false"
     inkscape:window-width="1920"
     inkscape:window-height="1016"
     inkscape:window-x="0"
     inkscape:window-y="0"
     inkscape:window-maximized="1"
     inkscape:snap-others="false"
     inkscape:object-nodes="false"
     fit-margin-top="0"
     fit-margin-left="0"
     fit-margin-right="0"
     fit-margin-bottom="0"
     units="px"
     inkscape:pagecheckerboard="0" />
  <metadata
     id="metadata5">
    <rdf:RDF>
      <cc:Work
         rdf:about="">
        <dc:format>image/svg+xml</dc:format>
        <dc:type
           rdf:resource="http://purl.org/dc/dcmitype/StillImage" />
      </cc:Work>
    </rdf:RDF>
  </metadata>
  <g
     inkscape:label="Warstwa 1"
     inkscape:groupmode="layer"
     id="layer1"
     transform="translate(-48.83608,-62.934488)">
    <path
       id="rect975"
       style="fill:#fff0f7;fill-opacity:1;stroke-width:1.28504;stroke-linecap:round;stop-color:#000000"
       d="M 231.32031,127.46094 H 31.324219 v 94.62695 c 0,12.93337 8.041206,23.3457 18.029297,23.3457 H 213.29102 c 9.98809,0 18.02929,-10.41233 18.02929,-23.3457 z"
       transform="matrix(0.26458333,0,0,0.26458333,40.548214,37.941698)" />
    <g
       id="g923"
       transform="matrix(0.13152074,0,0,0.13152074,65.667171,68.509613)"
       style="stroke-width:7.60336">
      <path
         id="rect833"
         style="fill:#aa1660;fill-opacity:1;fill-rule:nonzero;stroke-width:9.77062;stop-color:#000000"
         d="m 53.136719,65.742188 c -9.66137,0 -17.439453,7.168185 -17.439453,16.072265 V 233.91797 c 0,8.90409 7.778083,16.07226 17.439453,16.07226 H 270.52344 c 9.66138,0 17.43945,-7.16817 17.43945,-16.07226 V 81.814453 c 0,-8.90408 -7.77807,-16.072265 -17.43945,-16.072265 z m 29.277343,76.173832 c 0.134831,0.002 0.268833,0.0214 0.398438,0.0586 0.799862,0.23163 1.261813,1.06646 1.033203,1.86719 -1.280901,4.46831 -1.622684,7.71959 -0.892578,10.07031 0.574412,1.84945 1.800695,3.34957 4.146484,4.74414 a 19.180561,19.957865 0 0 1 2.357422,-0.96289 c -1.819778,-2.26705 -3.044178,-5.10107 -2.880859,-7.33984 0.184981,-2.53574 1.525097,-4.91149 3.537109,-7.61914 0.277762,-0.37111 0.710421,-0.59427 1.173828,-0.60547 0.339506,-0.01 0.672504,0.0945 0.945313,0.29687 0.670421,0.4991 0.808655,1.44749 0.308594,2.11719 -1.878921,2.52856 -2.836925,4.46514 -2.951172,6.03125 -0.114248,1.5661 0.925504,3.89593 2.826172,5.92383 0.121953,0.1303 0.210174,0.2787 0.277343,0.43359 a 19.180561,19.957865 0 0 1 2.373047,-0.18359 c -0.881925,-1.45711 -1.228512,-2.97629 -1.123047,-4.39453 0.201358,-2.70777 1.694717,-4.88347 2.910157,-6.26758 0.25984,-0.29599 0.624932,-0.47887 1.017578,-0.50977 0.02277,-0.001 0.04556,-0.002 0.06836,-0.002 0.383403,-0.0136 0.757642,0.11904 1.046875,0.37109 0.628854,0.55041 0.691843,1.50662 0.140625,2.13477 -0.951583,1.08364 -2.040789,2.84425 -2.164062,4.50195 -0.109991,1.47909 0.318237,3.00944 2.617187,4.67188 a 19.180561,19.957865 0 0 1 14.884761,19.45117 19.180561,19.957865 0 0 1 -19.179683,19.95703 19.180561,19.957865 0 0 1 -19.179687,-19.95703 19.180561,19.957865 0 0 1 1.003906,-6.37305 c -0.175868,-0.0534 -0.343381,-0.0973 -0.527344,-0.1582 -1.529465,-0.50651 -3.245831,-1.34631 -4.857422,-2.56836 -3.223185,-2.4441 -6.029117,-6.62067 -5.33789,-12.28516 0.09203,-0.75215 0.726661,-1.32012 1.484375,-1.32812 0.06668,8e-4 0.13323,0.006 0.199218,0.0156 0.829755,0.0988 1.421996,0.852 1.322266,1.68164 -0.555284,4.55045 1.536181,7.51661 4.16211,9.50782 1.31296,0.9956 2.760898,1.70158 3.980468,2.10546 0.255239,0.0846 0.498365,0.14192 0.734375,0.19532 a 19.180561,19.957865 0 0 1 1.396485,-2.37305 c -2.242933,-2.18284 -4.118742,-4.28893 -5.335938,-6.87305 -1.433042,-3.04236 -1.881073,-6.66112 -1.1875,-11.48633 0.106903,-0.75155 0.754583,-1.30682 1.513672,-1.29882 0.06664,2e-4 0.133189,0.005 0.199219,0.0137 0.824658,0.1217 1.395194,0.88795 1.27539,1.71289 -0.638868,4.44462 -0.214314,7.32812 0.9375,9.77344 0.94475,2.00571 2.482971,3.79413 4.503907,5.78515 a 19.180561,19.957865 0 0 1 2.693359,-2.38086 c -2.104595,-1.54548 -3.525774,-3.37296 -4.207031,-5.5664 -1.028508,-3.31149 -0.46407,-7.11203 0.878906,-11.79688 0.189457,-0.65541 0.794409,-1.10269 1.476562,-1.09179 z m 155.726558,3.04101 a 1.5118111,1.5118111 0 0 1 1.46485,1.09375 c 1.34294,4.68485 1.90738,8.48539 0.87891,11.79688 -0.65803,2.11858 -1.99618,3.89829 -3.98047,5.41015 a 19.180561,19.957865 0 0 1 2.10742,2.89453 c 2.20261,-2.13633 3.8689,-4.01911 4.86914,-6.14257 1.15196,-2.44532 1.57049,-5.32882 0.93164,-9.77344 a 1.5118111,1.5118111 0 0 1 1.2832,-1.71094 1.5118111,1.5118111 0 0 1 0.16211,-0.0156 h 0.002 a 1.5118111,1.5118111 0 0 1 1.54101,1.29882 c 0.69358,4.82521 0.24555,8.44397 -1.1875,11.48633 -1.37029,2.90912 -3.56007,5.20826 -6.19141,7.69922 a 19.180561,19.957865 0 0 1 0.61524,1.75195 1.5118111,1.5118111 0 0 1 0.0254,0.006 c 0.0262,0.006 1.13395,-0.002 2.35351,-0.40625 1.21958,-0.40388 2.66555,-1.10791 3.97852,-2.10351 2.62594,-1.99121 4.71935,-4.95738 4.16406,-9.50781 a 1.5118111,1.5118111 0 0 1 1.31446,-1.6836 1.5118111,1.5118111 0 0 1 0.16211,-0.0156 1.5118111,1.5118111 0 0 1 1.52148,1.33007 c 0.6912,5.66449 -2.11471,9.83911 -5.33789,12.28321 -1.61159,1.22205 -3.32796,2.06185 -4.85742,2.56836 -0.98358,0.32569 -1.83617,0.53201 -2.6543,0.57226 a 19.180561,19.957865 0 0 1 0.20508,2.91602 19.180561,19.957865 0 0 1 -19.17969,19.95703 19.180561,19.957865 0 0 1 -19.18164,-19.95703 19.180561,19.957865 0 0 1 19.18164,-19.95899 19.180561,19.957865 0 0 1 1.20313,0.041 c 0.0671,-0.39381 0.0814,-0.78293 0.0527,-1.16797 -0.12327,-1.6577 -1.2203,-3.41245 -2.17187,-4.49609 a 1.5118111,1.5118111 0 0 1 0.14062,-2.13282 1.5118111,1.5118111 0 0 1 0.87891,-0.36914 1.5118111,1.5118111 0 0 1 0.0605,-0.004 1.5118111,1.5118111 0 0 1 1.19532,0.51172 c 1.21542,1.38411 2.70675,3.55981 2.9082,6.26757 0.0442,0.59391 -0.003,1.20713 -0.12109,1.82422 a 19.180561,19.957865 0 0 1 2.66796,0.82813 c 1.45331,-1.71158 1.9106,-3.03208 1.8086,-4.43164 -0.11426,-1.56611 -1.07421,-3.50074 -2.95313,-6.0293 a 1.5118111,1.5118111 0 0 1 0.31641,-2.11914 1.5118111,1.5118111 0 0 1 0.90039,-0.29492 1.5118111,1.5118111 0 0 1 1.21094,0.60547 c 2.01199,2.70767 3.35815,5.08145 3.54297,7.61718 0.15066,2.0654 -0.58637,4.06423 -2.0625,6.01758 a 19.180561,19.957865 0 0 1 2.41406,1.7168 c 1.77868,-1.23923 2.77574,-2.58122 3.27344,-4.18359 0.73009,-2.35073 0.38049,-5.59419 -0.90039,-10.0625 a 1.5118111,1.5118111 0 0 1 1.04101,-1.86719 1.5118111,1.5118111 0 0 1 0.35352,-0.0586 h 0.002 a 1.5118111,1.5118111 0 0 1 0.0469,-0.002 z m -92.63476,62.34766 h 35.58594 c 9.66138,0 17.4375,4.92547 17.4375,11.04297 0,6.1175 -7.77612,11.04297 -17.4375,11.04296 h -35.58594 c -9.66138,0 -17.43945,-4.92546 -17.43945,-11.04296 0,-6.1175 7.77807,-11.04297 17.43945,-11.04297 z"
         transform="matrix(0.26458333,0,0,0.26458333,40.548214,37.941698)" />
      <path
         id="rect2836-3"
         style="fill:#aa1660;fill-opacity:1;fill-rule:evenodd;stroke:none;stroke-width:2.58515;stroke-miterlimit:4;stroke-dasharray:none;stroke-opacity:1;stop-color:#000000"
         d="m 97.83282,37.9417 a 4.1635841,4.1635841 0 0 0 -4.154784,4.163569 4.1635841,4.1635841 0 0 0 2.525943,3.827675 h -0.119372 v 8.435144 h 3.514513 v -8.435144 h -0.118338 a 4.1635841,4.1635841 0 0 0 2.524398,-3.827675 4.1635841,4.1635841 0 0 0 -4.163573,-4.163569 4.1635841,4.1635841 0 0 0 -0.0088,0 z" />
      <path
         style="fill:#aa1660;fill-opacity:1;fill-rule:evenodd;stroke:none;stroke-width:2.58515;stroke-opacity:1;stop-color:#000000"
         id="path869"
         sodipodi:type="arc"
         sodipodi:cx="87.119606"
         sodipodi:cy="-49.189617"
         sodipodi:rx="8.839097"
         sodipodi:ry="8.6414032"
         sodipodi:start="0.051963985"
         sodipodi:end="3.0888476"
         sodipodi:arc-type="arc"
         d="m 95.946772,-48.740777 a 8.839097,8.6414032 0 0 1 -8.823714,8.192562 8.839097,8.6414032 0 0 1 -8.830256,-8.185822"
         transform="rotate(90)"
         sodipodi:open="true" />
      <path
         id="rect2836"
         style="fill:#aa1660;fill-opacity:1;fill-rule:evenodd;stroke:none;stroke-width:2.58515;stroke-miterlimit:4;stroke-dasharray:none;stroke-opacity:1;stop-color:#000000"
         d="m 65.781279,38.19572 a 4.1635841,4.1635841 0 0 0 -4.154784,4.163569 4.1635841,4.1635841 0 0 0 2.525943,3.827675 h -0.119372 v 8.435144 h 3.514513 v -8.435144 h -0.118338 a 4.1635841,4.1635841 0 0 0 2.524393,-3.827675 4.1635841,4.1635841 0 0 0 -4.163568,-4.163569 4.1635841,4.1635841 0 0 0 -0.0088,0 z" />
      <path
         style="fill:#aa1660;fill-opacity:1;fill-rule:evenodd;stroke:none;stroke-width:2.58515;stroke-opacity:1;stop-color:#000000"
         id="path869-6"
         sodipodi:type="arc"
         sodipodi:cx="88.106071"
         sodipodi:cy="117.42777"
         sodipodi:rx="8.839097"
         sodipodi:ry="8.6414032"
         sodipodi:start="0.051963985"
         sodipodi:end="3.0888476"
         sodipodi:arc-type="arc"
         transform="matrix(0,1,1,0,0,0)"
         sodipodi:open="true"
         d="m 96.933237,117.87661 a 8.839097,8.6414032 0 0 1 -8.823714,8.19257 8.839097,8.6414032 0 0 1 -8.830256,-8.18583" />
      <path
         style="fill:#aa1660;fill-opacity:1;fill-rule:evenodd;stroke:none;stroke-width:2.58515;stroke-miterlimit:4;stroke-dasharray:none;stroke-opacity:1;stop-color:#000000"
         id="path2887"
         sodipodi:type="arc"
         sodipodi:cx="65.706718"
         sodipodi:cy="85.088219"
         sodipodi:rx="3.5008411"
         sodipodi:ry="3.4475193"
         sodipodi:start="0"
         sodipodi:end="5.6651713"
         sodipodi:arc-type="slice"
         d="m 69.20756,85.088219 a 3.5008411,3.4475193 0 0 1 -2.962099,3.406452 3.5008411,3.4475193 0 0 1 -3.87377,-2.358017 3.5008411,3.4475193 0 0 1 1.769833,-4.132202 3.5008411,3.4475193 0 0 1 4.418488,1.086213 l -2.853294,1.997554 z" />
      <path
         style="fill:#aa1660;fill-opacity:1;fill-rule:evenodd;stroke:none;stroke-width:2.58515;stroke-miterlimit:4;stroke-dasharray:none;stroke-opacity:1;stop-color:#000000"
         id="path2887-7"
         sodipodi:type="arc"
         sodipodi:cx="99.321495"
         sodipodi:cy="84.957176"
         sodipodi:rx="3.3243835"
         sodipodi:ry="3.4952962"
         sodipodi:start="0"
         sodipodi:end="5.667659"
         sodipodi:arc-type="slice"
         d="m 102.64588,84.957176 a 3.3243835,3.4952962 0 0 1 -2.81484,3.453995 3.3243835,3.4952962 0 0 1 -3.677727,-2.395173 3.3243835,3.4952962 0 0 1 1.687431,-4.188234 3.3243835,3.4952962 0 0 1 4.195006,1.111269 l -2.714255,2.018143 z" />
    </g>
    <path
       id="path4101"
       style="fill:#aa1660;fill-opacity:1;stroke-width:1.28504;stroke-linecap:round;stop-color:#000000"
       d="m 49.353516,94.460938 c -9.988091,-10e-7 -18.029297,10.412332 -18.029297,23.345702 v 9.6543 H 231.32031 v -9.6543 c 0,-12.93337 -8.0412,-23.345702 -18.02929,-23.345702 z"
       transform="matrix(0.26458333,0,0,0.26458333,40.548214,37.941698)" />
    <ellipse
       style="fill:#86adc9;fill-opacity:1;stroke-width:1.28504;stroke-linecap:round;stop-color:#000000"
       id="path7832"
       cx="89.42157"
       cy="67.512253"
       rx="1.7005227"
       ry="1.8164277" />
    <ellipse
       style="fill:#86c9aa;fill-opacity:1;stroke-width:1.28504;stroke-linecap:round;stop-color:#000000"
       id="ellipse10569"
       cx="93.165268"
       cy="67.512245"
       rx="1.7005227"
       ry="1.8164277" />
    <ellipse
       style="fill:#c986b2;fill-opacity:1;stroke-width:1.28504;stroke-linecap:round;stop-color:#000000"
       id="ellipse10571"
       cx="96.908981"
       cy="67.512253"
       rx="1.7005227"
       ry="1.8164277" />
    <g
       id="g29964"
       transform="translate(3.87494)">
      <path
         style="fill:none;fill-opacity:1;stroke:#aa1660;stroke-width:1.64;stroke-linecap:round;stroke-linejoin:round;stroke-miterlimit:4;stroke-dasharray:none;stroke-opacity:1;stop-color:#000000"
         d="m 52.834319,84.686083 1.042014,2.12126 2.731728,-3.023376"
         id="path11174" />
      <path
         style="fill:#25cabb;fill-opacity:1;stroke:#aa1660;stroke-width:1.64;stroke-linecap:round;stroke-linejoin:round;stroke-miterlimit:4;stroke-dasharray:none;stroke-opacity:1;stop-color:#000000"
         d="m 60.116528,86.284999 29.887065,0.03359"
         id="path18368" />
    </g>
    <g
       id="g29956"
       transform="translate(3.789984,0.36592933)">
      <path
         style="fill:none;fill-opacity:1;stroke:#86adc9;stroke-width:1.64;stroke-linecap:round;stroke-linejoin:round;stroke-miterlimit:4;stroke-dasharray:none;stroke-opacity:1;stop-color:#000000"
         d="m 52.919275,90.701098 1.042014,2.12126 2.731728,-3.023376"
         id="path11174-7" />
      <path
         style="fill:#5acaa6;fill-opacity:1;stroke:#86adc9;stroke-width:1.64;stroke-linecap:round;stroke-linejoin:round;stroke-miterlimit:4;stroke-dasharray:none;stroke-opacity:1;stop-color:#000000"
         d="m 60.201484,92.300014 29.887065,0.03359"
         id="path18368-4" />
    </g>
    <g
       id="g29960"
       transform="translate(3.789984)">
      <path
         style="fill:none;fill-opacity:1;stroke:#86c9aa;stroke-width:1.64;stroke-linecap:round;stroke-linejoin:round;stroke-miterlimit:4;stroke-dasharray:none;stroke-opacity:1;stop-color:#000000"
         d="m 52.919275,97.447973 1.042014,2.12126 2.731728,-3.023376"
         id="path11174-5" />
      <path
         style="fill:#fff0f7;fill-opacity:1;stroke:#86c9aa;stroke-width:1.64;stroke-linecap:round;stroke-linejoin:round;stroke-miterlimit:4;stroke-dasharray:none;stroke-opacity:1;stop-color:#000000"
         d="m 60.201484,99.046889 29.887065,0.03359"
         id="path18368-9" />
    </g>
  </g>
</svg>
